<?xml version="1.0" encoding="UTF-8" standalone="no"?>
<svg id="Layer_1" data-name="Layer 1" version="1.1" viewBox="0 0 141 141" sodipodi:docname="thumbnail.svg" inkscape:version="1.3.2 (091e20e, 2023-11-25)" xmlns:inkscape="http://www.inkscape.org/namespaces/inkscape" xmlns:sodipodi="http://sodipodi.sourceforge.net/DTD/sodipodi-0.dtd" xmlns="http://www.w3.org/2000/svg" xmlns:svg="http://www.w3.org/2000/svg">
<sodipodi:namedview id="namedview4" pagecolor="#505050" bordercolor="#ffffff" borderopacity="1" inkscape:showpageshadow="0" inkscape:pageopacity="0" inkscape:pagecheckerboard="1" inkscape:deskcolor="#505050" inkscape:zoom="1.6737589" inkscape:cx="94.099576" inkscape:cy="53.173729" inkscape:window-width="1728" inkscape:window-height="1051" inkscape:window-x="0" inkscape:window-y="38" inkscape:window-maximized="1" inkscape:current-layer="Layer_1" />
<defs id="defs1">
<style id="style1">
      .cls-1 {
        fill: none;
        stroke: #fff;
        stroke-linecap: round;
        stroke-linejoin: round;
        stroke-width: 8px;
      }

      .cls-2 {
        fill: #ff52a2;
        stroke-width: 0px;
      }
    </style>
</defs>
<g id="g149" style="display:inline" transform="matrix(1.331,0,0,1.331,-611.58972,-249.11046)">
<path id="path132" d="m 3751.2,2717.91 c 0,-134.14 108.73,-242.86 242.85,-242.86 v 485.73 c -134.12,0 -242.85,-108.74 -242.85,-242.87" style="fill:#c1d64b;fill-opacity:1;fill-rule:nonzero;stroke:none" transform="matrix(0.13333333,0,0,-0.13333333,0,600)" />
<path id="path133" d="m 4236.91,2717.91 c 0,134.13 -108.73,242.87 -242.86,242.87 v -485.73 c 54.66,0 105.08,18.06 145.67,48.52 l 97.19,-82.79 -46.6,134.12 c 29.28,40.12 46.6,89.52 46.6,143.01" style="fill:#9fb603;fill-opacity:1;fill-rule:nonzero;stroke:none" transform="matrix(0.13333333,0,0,-0.13333333,0,600)" />
<path id="path134" d="m 3594.43,2865.4 c -74.94,0 -135.71,-60.73 -135.71,-135.72 v -31.4 c 0,-70.85 54.31,-128.94 123.53,-135.12 l -84.63,-159.1 229.57,158.5 h 46.45 v 302.84 h -179.21" style="fill:#2c5871;fill-opacity:1;fill-rule:nonzero;stroke:none" transform="matrix(0.13333333,0,0,-0.13333333,0,600)" />
<path id="path135" d="m 3971.85,2865.4 h -198.21 v -302.84 h 198.21 c 74.94,0 135.71,60.78 135.71,135.72 v 31.4 c 0,74.99 -60.77,135.72 -135.71,135.72" style="fill:#0f303f;fill-opacity:1;fill-rule:nonzero;stroke:none" transform="matrix(0.13333333,0,0,-0.13333333,0,600)" />
<path id="path136" d="m 3666.71,2713.59 c 0,-13.23 -10.73,-23.96 -23.98,-23.96 -13.23,0 -23.96,10.73 -23.96,23.96 0,13.25 10.73,23.97 23.96,23.97 13.25,0 23.98,-10.72 23.98,-23.97" style="fill:#fdc63a;fill-opacity:1;fill-rule:nonzero;stroke:none" transform="matrix(0.13333333,0,0,-0.13333333,0,600)" />
<path id="path137" d="m 3807.1,2713.59 c 0,-13.23 -10.72,-23.96 -23.97,-23.96 -13.23,0 -23.96,10.73 -23.96,23.96 0,13.25 10.73,23.97 23.96,23.97 13.25,0 23.97,-10.72 23.97,-23.97" style="fill:#fdc63a;fill-opacity:1;fill-rule:nonzero;stroke:none" transform="matrix(0.13333333,0,0,-0.13333333,0,600)" />
<path id="path138" d="m 3947.5,2713.59 c 0,-13.23 -10.72,-23.96 -23.96,-23.96 -13.24,0 -23.96,10.73 -23.96,23.96 0,13.25 10.72,23.97 23.96,23.97 13.24,0 23.96,-10.72 23.96,-23.97" style="fill:#fdc63a;fill-opacity:1;fill-rule:nonzero;stroke:none" transform="matrix(0.13333333,0,0,-0.13333333,0,600)" />
</g>
</svg>
